<svg width="430" height="932" viewBox="0 0 430 932" fill="none" xmlns="http://www.w3.org/2000/svg">
<mask id="path-1-inside-1_15_270" fill="white">
<path d="M301 -50C301 -20.8466 308.449 8.02142 322.923 34.9557C337.396 61.89 358.61 86.3631 385.353 106.978C412.097 127.592 443.845 143.945 478.787 155.101C513.729 166.258 551.179 172 589 172V148.92C555.111 148.92 521.554 143.775 490.245 133.779C458.936 123.782 430.488 109.129 406.525 90.658C382.562 72.1865 363.553 50.2577 350.585 26.1235C337.616 1.98938 330.941 -23.8774 330.941 -50H301Z"/>
</mask>
<path d="M301 -50C301 -20.8466 308.449 8.02142 322.923 34.9557C337.396 61.89 358.61 86.3631 385.353 106.978C412.097 127.592 443.845 143.945 478.787 155.101C513.729 166.258 551.179 172 589 172V148.92C555.111 148.92 521.554 143.775 490.245 133.779C458.936 123.782 430.488 109.129 406.525 90.658C382.562 72.1865 363.553 50.2577 350.585 26.1235C337.616 1.98938 330.941 -23.8774 330.941 -50H301Z" stroke="white" stroke-width="16" mask="url(#path-1-inside-1_15_270)"/>
<path d="M416.5 727C392.987 727 374 708.155 374 685C374 661.845 392.987 643 416.5 643C440.013 643 459 661.845 459 685C459 708.155 440.013 727 416.5 727Z" stroke="white" stroke-width="8"/>
<path d="M424 710C412.939 710 403 699.385 403 685C403 670.615 412.939 660 424 660C435.061 660 445 670.615 445 685C445 699.385 435.061 710 424 710Z" stroke="white" stroke-width="8"/>
<circle cx="214" cy="374" r="181" stroke="white" stroke-width="8"/>
<mask id="path-5-inside-2_15_270" fill="white">
<path d="M225.507 990.884C249.791 978.713 270.055 960.372 284.57 937.426C299.084 914.48 307.418 887.61 308.86 859.11C310.301 830.609 304.808 801.325 292.849 773.755C280.89 746.185 262.82 721.149 240.181 700.784C217.543 680.419 191.008 665.329 162.841 656.802C134.674 648.275 105.712 646.564 78.4265 651.816C51.141 657.067 26.3421 669.125 6.14648 686.961C-14.0491 704.796 -29.0418 727.879 -37.552 754.24L-3.01017 769.325C3.76373 748.342 15.6976 729.969 31.7729 715.772C47.8481 701.576 67.5875 691.978 89.3063 687.797C111.025 683.617 134.078 684.979 156.498 691.766C178.919 698.553 200.04 710.565 218.06 726.775C236.08 742.986 250.463 762.914 259.982 784.858C269.501 806.803 273.874 830.113 272.726 852.799C271.579 875.485 264.945 896.873 253.392 915.137C241.839 933.402 225.709 948.001 206.379 957.688L225.507 990.884Z"/>
</mask>
<path d="M225.507 990.884C249.791 978.713 270.055 960.372 284.57 937.426C299.084 914.48 307.418 887.61 308.86 859.11C310.301 830.609 304.808 801.325 292.849 773.755C280.89 746.185 262.82 721.149 240.181 700.784C217.543 680.419 191.008 665.329 162.841 656.802C134.674 648.275 105.712 646.564 78.4265 651.816C51.141 657.067 26.3421 669.125 6.14648 686.961C-14.0491 704.796 -29.0418 727.879 -37.552 754.24L-3.01017 769.325C3.76373 748.342 15.6976 729.969 31.7729 715.772C47.8481 701.576 67.5875 691.978 89.3063 687.797C111.025 683.617 134.078 684.979 156.498 691.766C178.919 698.553 200.04 710.565 218.06 726.775C236.08 742.986 250.463 762.914 259.982 784.858C269.501 806.803 273.874 830.113 272.726 852.799C271.579 875.485 264.945 896.873 253.392 915.137C241.839 933.402 225.709 948.001 206.379 957.688L225.507 990.884Z" stroke="white" stroke-width="16" mask="url(#path-5-inside-2_15_270)"/>
<mask id="path-6-inside-3_15_270" fill="white">
<path d="M183.941 994.747C203.357 985.43 219.14 970.691 229.796 951.926C240.452 933.16 245.629 910.99 244.835 887.514C244.041 864.039 237.303 840.035 225.26 817.777C213.217 795.519 196.267 775.743 176.015 760.323C155.763 744.903 132.88 734.348 109.533 729.659C86.1862 724.97 63.1485 726.302 42.6019 733.529C22.0552 740.755 4.67992 753.637 -7.87844 770.954C-20.4368 788.271 -27.7625 809.45 -29.1616 832.485L-1.2281 839.409C-0.114443 821.074 5.71662 804.216 15.7128 790.432C25.709 776.647 39.5394 766.394 55.8941 760.642C72.2487 754.89 90.5863 753.83 109.17 757.562C127.753 761.294 145.968 769.695 162.088 781.97C178.208 794.244 191.7 809.985 201.286 827.702C210.872 845.419 216.235 864.525 216.867 883.211C217.499 901.897 213.379 919.544 204.897 934.481C196.415 949.418 183.852 961.15 168.397 968.566L183.941 994.747Z"/>
</mask>
<path d="M183.941 994.747C203.357 985.43 219.14 970.691 229.796 951.926C240.452 933.16 245.629 910.99 244.835 887.514C244.041 864.039 237.303 840.035 225.26 817.777C213.217 795.519 196.267 775.743 176.015 760.323C155.763 744.903 132.88 734.348 109.533 729.659C86.1862 724.97 63.1485 726.302 42.6019 733.529C22.0552 740.755 4.67992 753.637 -7.87844 770.954C-20.4368 788.271 -27.7625 809.45 -29.1616 832.485L-1.2281 839.409C-0.114443 821.074 5.71662 804.216 15.7128 790.432C25.709 776.647 39.5394 766.394 55.8941 760.642C72.2487 754.89 90.5863 753.83 109.17 757.562C127.753 761.294 145.968 769.695 162.088 781.97C178.208 794.244 191.7 809.985 201.286 827.702C210.872 845.419 216.235 864.525 216.867 883.211C217.499 901.897 213.379 919.544 204.897 934.481C196.415 949.418 183.852 961.15 168.397 968.566L183.941 994.747Z" stroke="white" stroke-width="16" mask="url(#path-6-inside-3_15_270)"/>
</svg>
